<svg viewBox="0 0 123 22" fill="none" xmlns="http://www.w3.org/2000/svg"><path d="M5.284 16.776h.112c.846 0 1.692.002 2.538-.002.1 0 .128.025.128.127-.004.982-.004 1.963 0 2.945 0 .09-.022.12-.116.12-2.61-.003-5.221-.003-7.832 0-.083 0-.114-.02-.114-.11.003-.87.003-1.738 0-2.608 0-.07.026-.106.082-.141.997-.62 1.992-1.241 2.987-1.863.036-.022.071-.046.122-.08-.04-.028-.069-.051-.1-.071-1.001-.626-2.002-1.251-3.004-1.874C.021 13.18 0 13.135 0 13.06c.003-.859.003-1.718 0-2.577 0-.092.02-.125.119-.125 2.607.003 5.215.003 7.822 0 .097 0 .12.03.12.123-.003.982-.003 1.964 0 2.946 0 .095-.026.122-.121.122-.847-.004-1.692-.002-2.538-.002h-.117l-.01.022c.026.02.051.042.078.06.33.22.66.441.992.659a.16.16 0 0 1 .083.153c-.003.48-.004.962 0 1.443 0 .072-.025.114-.085.152-.329.216-.655.435-.983.653-.029.019-.056.04-.084.06l.007.027ZM5.39 2.881 8.05 1.07c.003.054.007.085.007.116 0 1.155 0 2.309.003 3.463 0 .079-.03.118-.09.158-.624.4-1.246.801-1.868 1.203-.017.011-.04.018-.049.033a.31.31 0 0 0-.046.117c-.001.012.058.041.09.042.598.002 1.196.001 1.794.002.196 0 .166-.018.166.171V9.52c-.045.002-.083.007-.121.007-2.604 0-5.208 0-7.813.003-.104 0-.124-.032-.124-.13.003-1.336.002-2.673.002-4.01 0-.59.064-1.17.26-1.731.17-.485.43-.91.825-1.242.419-.354.913-.527 1.449-.586a3.822 3.822 0 0 1 1.569.13c.49.152.9.423 1.207.84a.832.832 0 0 0 .043.055c.007.007.016.012.035.027ZM3.112 6.202h.464c.05 0 .082-.009.081-.07-.003-.199.007-.398-.008-.596-.024-.295-.232-.473-.532-.475-.295-.001-.502.17-.53.464-.018.2-.008.403-.012.605 0 .059.03.073.081.072h.455ZM66.177 19.999c-1.271 0-2.512.009-3.752-.011-.14 0-.298-.13-.409-.241a1513 1513 0 0 1-5.609-5.638c-.104-.106-.155-.265-.232-.4l-.16.123v6.138H48.41V1.091c.115-.007.24-.018.36-.018.905 0 1.811-.015 2.716.011.208.007.453.102.61.237 2.074 1.793 4.137 3.6 6.202 5.401.064.058.139.102.282.206V1.093h7.593V20h.004ZM105.37 1.07h9.286c1.477 0 2.912.226 4.254.88 2.536 1.238 3.876 3.872 3.451 6.768-.261 1.773-1.008 3.305-2.315 4.541-.214.204-.137.345-.044.537.946 1.94 1.893 3.88 2.837 5.822.055.112.099.23.163.382h-.499c-2.419 0-4.838-.006-7.257.009-.322 0-.437-.102-.521-.402-.412-1.495-.852-2.98-1.285-4.482h-.524v4.846h-7.548v-18.9h.002Zm7.555 8.734c.36 0 .67.022.977-.004.449-.042 1.341-.456 1.341-1.438s-.735-1.416-1.155-1.474c-.376-.05-.763-.01-1.163-.01v2.926ZM36.757 1.217l-.032.53c-.215 3.494-.43 6.987-.641 10.48-.02.316-.022.644.03.955.105.62.555.97 1.212 1.004.665.032 1.123-.266 1.298-.881.079-.278.115-.574.133-.865.221-3.52.436-7.04.652-10.559l.031-.502 7.91.488-.032.522c-.218 3.545-.493 7.09-.639 10.64-.16 3.847-2.589 6.668-6.052 7.701-3.063.914-6.044.594-8.82-1.015-2.317-1.34-3.47-3.45-3.686-6.089a9.929 9.929 0 0 1-.005-1.354c.222-3.72.453-7.438.682-11.158l.024-.386 7.933.488h.002ZM87.444 20.868l-1.13-19.722 16.28-.933.341 5.95-8.339.479c.002.238.039.994.041 1.247l8.199-.47.297 5.185-8.162.467.076 1.329 8.559-.49.344 6.015-16.506.945v-.002ZM84.741 1.088V7.64h-4.566v12.337H72.46V7.68h-4.585V1.088h16.867Z" fill="#fff"/><path fill-rule="evenodd" clip-rule="evenodd" d="M17.988 19.966v-4.398l.002-.002.328.002c.198.002.383.004.568-.002 1.31-.046 2.602-.212 3.836-.694 1.735-.679 3.064-1.798 3.807-3.546.6-1.409.745-2.87.52-4.371-.337-2.225-1.433-3.94-3.458-4.993-1.267-.659-2.638-.89-4.053-.89a5891.038 5891.038 0 0 0-8.85 0c-.084 0-.168.004-.257.01l-.141.007v18.877h7.698Zm.23-9.953c.225.005.434.009.642-.009.45-.042 1.341-.456 1.341-1.438s-.735-1.416-1.155-1.473c-.26-.036-.525-.027-.797-.019-.12.004-.243.008-.366.008v2.926c.116 0 .227.003.335.005Z" fill="#fff"/></svg>
