<svg width="28" height="28" viewBox="0 0 28 28" fill="none" xmlns="http://www.w3.org/2000/svg">
<path fill-rule="evenodd" clip-rule="evenodd" d="M3.4987 7.31208V4.66658C3.4987 3.37792 4.54337 2.33325 5.83203 2.33325H18.6654C19.954 2.33325 20.9987 3.37792 20.9987 4.66659V7.31208C21.6961 7.71552 22.1654 8.46959 22.1654 9.33325V9.91658H24.4987C25.7874 9.91658 26.832 10.9613 26.832 12.2499V15.4787C27.5295 15.8822 27.9987 16.6363 27.9987 17.4999C27.9987 18.7886 26.954 19.8333 25.6654 19.8333C24.3767 19.8333 23.332 18.7886 23.332 17.4999C23.332 16.6363 23.8013 15.8822 24.4987 15.4787V12.2499H22.1654V12.8333C22.1654 13.6969 21.6961 14.451 20.9987 14.8544V23.3333C20.9987 24.6219 19.954 25.6666 18.6654 25.6666H5.83203C4.54337 25.6666 3.4987 24.6219 3.4987 23.3333V14.8544C2.80126 14.451 2.33203 13.6969 2.33203 12.8333V9.33325C2.33203 8.46959 2.80126 7.71552 3.4987 7.31208ZM5.83203 4.66659H18.6654V6.99992H5.83203V4.66659ZM4.66536 9.33325L4.66536 12.8333H19.832V9.33325H4.66536ZM5.83203 23.3333V15.1666H18.6654V23.3333H5.83203Z" fill="#CAA164"/>
</svg>
