<svg width="28" height="28" viewBox="0 0 28 28" fill="none" xmlns="http://www.w3.org/2000/svg">
<path d="M14 26.8333C18.8324 26.8333 22.75 22.9158 22.75 18.0833C22.75 17.0736 22.4813 16.1037 22.1667 15.2012C20.2222 17.1226 18.7445 18.0833 17.7333 18.0833C22.3946 9.91667 19.8333 6.41667 12.8333 1.75C13.4167 7.58276 9.57137 10.236 8.00542 11.7094C6.30917 13.3053 5.25 15.5706 5.25 18.0833C5.25 22.9158 9.1675 26.8333 14 26.8333ZM14.8276 6.10748C18.6096 9.31616 18.6277 11.8094 15.7068 16.9267C14.819 18.4822 15.9423 20.4167 17.7333 20.4167C18.5365 20.4167 19.3481 20.1824 20.2054 19.7226C19.4809 22.4723 16.9772 24.5 14 24.5C10.4562 24.5 7.58333 21.6272 7.58333 18.0833C7.58333 16.2876 8.32159 14.6155 9.60429 13.4087C9.7513 13.2705 10.4971 12.6095 10.5289 12.5809C11.0234 12.1358 11.4308 11.744 11.8334 11.3129C13.2689 9.77587 14.2999 8.06903 14.8276 6.10748Z" fill="#CAA164"/>
</svg>
