<svg width="28" height="28" viewBox="0 0 28 28" fill="none" xmlns="http://www.w3.org/2000/svg">
<path d="M10.0606 13.998C9.33569 13.2463 9.33569 12.0275 10.0606 11.2758C10.7856 10.5241 11.961 10.5241 12.686 11.2758L13.9989 12.6372L15.3103 11.2773C16.0353 10.5256 17.2107 10.5256 17.9356 11.2773C18.6606 12.029 18.6606 13.2478 17.9356 13.9995L13.9977 18.0829L11.3724 15.3607L11.3736 15.3594L10.0606 13.998Z" fill="#CAA164"/>
<path fill-rule="evenodd" clip-rule="evenodd" d="M4.66797 2.91675C4.66797 1.95025 5.45147 1.16675 6.41797 1.16675H21.5846C22.5511 1.16675 23.3346 1.95025 23.3346 2.91675V25.0834C23.3346 26.0499 22.5511 26.8334 21.5846 26.8334H6.41797C5.45147 26.8334 4.66797 26.0499 4.66797 25.0834V2.91675ZM7.0013 24.5001V3.50008H21.0013V24.5001H7.0013Z" fill="#CAA164"/>
</svg>
