<svg width="28" height="28" viewBox="0 0 28 28" fill="none" xmlns="http://www.w3.org/2000/svg">
<path d="M16.9141 14.0001C16.9141 14.3763 16.8428 14.7359 16.7131 15.0661L19.7725 18.1255L18.1226 19.7754L15.0631 16.7159C14.733 16.8456 14.3735 16.9167 13.9974 16.9167C13.6207 16.9167 13.2606 16.8453 12.93 16.7153L9.87094 19.7743L8.22103 18.1244L11.281 15.0644C11.1517 14.7347 11.0807 14.3757 11.0807 14.0001C11.0807 13.624 11.1519 13.2645 11.2816 12.9343L8.22313 9.87591L9.87305 8.22599L12.9314 11.2844C13.2616 11.1546 13.6212 11.0834 13.9974 11.0834C14.373 11.0834 14.732 11.1544 15.0617 11.2837L18.1205 8.22494L19.7704 9.87485L16.7126 12.9327C16.8426 13.2633 16.9141 13.6233 16.9141 14.0001Z" fill="#CAA164"/>
<path fill-rule="evenodd" clip-rule="evenodd" d="M26.8307 14.0001C26.8307 21.0877 21.085 26.8334 13.9974 26.8334C6.90974 26.8334 1.16406 21.0877 1.16406 14.0001C1.16406 6.91243 6.90974 1.16675 13.9974 1.16675C21.085 1.16675 26.8307 6.91243 26.8307 14.0001ZM12.8307 24.436V22.1667H15.1641V24.436C20.0309 23.898 23.8953 20.0336 24.4333 15.1667H22.1641V12.8334H24.4333C23.8953 7.96653 20.0309 4.10217 15.1641 3.56417V5.83342H12.8307V3.56417C7.96384 4.10217 4.09949 7.96653 3.56148 12.8334H5.83073V15.1667H3.56148C4.09949 20.0336 7.96384 23.898 12.8307 24.436Z" fill="#CAA164"/>
</svg>
