<svg width="28" height="28" viewBox="0 0 28 28" fill="none" xmlns="http://www.w3.org/2000/svg">
<path d="M13.9985 3.50008C12.0654 3.50008 10.4984 5.06709 10.4984 7.00008V11.6667C10.4984 13.5998 12.0654 15.1667 13.9985 15.1667C15.9314 15.1667 17.4985 13.5998 17.4985 11.6667V7.00008C17.4985 5.06709 15.9314 3.50008 13.9985 3.50008ZM13.9985 1.16675C17.2201 1.16675 19.8318 3.77842 19.8318 7.00008V11.6667C19.8318 14.8884 17.2201 17.5001 13.9985 17.5001C10.7767 17.5001 8.16508 14.8884 8.16508 11.6667V7.00008C8.16508 3.77842 10.7767 1.16675 13.9985 1.16675ZM3.5625 12.8334H5.91445C6.48056 16.7911 9.8842 19.8334 13.9985 19.8334C18.1126 19.8334 21.5162 16.7911 22.0824 12.8334H24.4343C23.8963 17.7003 20.032 21.5646 15.1651 22.1027V26.8334H12.8318V22.1027C7.96486 21.5646 4.10051 17.7003 3.5625 12.8334Z" fill="#CAA164"/>
</svg>
