<svg width="28" height="28" viewBox="0 0 28 28" fill="none" xmlns="http://www.w3.org/2000/svg">
<path fill-rule="evenodd" clip-rule="evenodd" d="M3.84047 20.4624L3.44277 20.0617C1.19616 17.798 1.19616 14.1278 3.44278 11.8641L12.4147 2.82334L14.0584 1.16715L14.0595 1.16675L22.5929 9.76499L24.4855 11.6735C26.842 14.0479 26.842 17.8974 24.4855 20.2718C22.1291 22.6461 18.3086 22.6461 15.9521 20.2718L15.1686 19.4823V24.4998H18.6686V26.8331H9.3353V24.4998H12.8353V19.5967L11.9762 20.4624C9.72957 22.7261 6.08708 22.7261 3.84047 20.4624ZM14.0587 15.0516L17.6083 18.6281C19.0521 20.0829 21.3856 20.0829 22.8294 18.6281C24.2829 17.1635 24.2829 14.7818 22.8294 13.3172L19.3043 9.7653L14.0595 4.47912L5.09893 13.5078C3.75522 14.8617 3.75522 17.0641 5.09892 18.418L5.49661 18.8187C6.8306 20.1628 8.98605 20.1628 10.32 18.8187L14.0587 15.0516Z" fill="#CAA164"/>
</svg>
