<svg width="28" height="28" viewBox="0 0 28 28" fill="none" xmlns="http://www.w3.org/2000/svg">
<path fill-rule="evenodd" clip-rule="evenodd" d="M2.12233 1.75C1.07213 1.75 0.493744 2.97029 1.15867 3.7832L1.81546 4.58617C2.64666 5.60237 2.83927 6.99827 2.31433 8.2016L1.71552 9.57426C1.46452 10.1496 1.29307 10.7565 1.2059 11.3782C0.622806 15.5366 3.85183 19.25 8.05092 19.25H8.30813C12.249 19.25 15.4438 16.0553 15.4438 12.1143V10.7615C15.4438 8.38413 13.5166 6.4569 11.1392 6.4569H10.7453C10.067 6.4569 9.51712 7.00678 9.51712 7.68509V9.22149C9.51712 9.42768 9.34997 9.59483 9.14378 9.59483C8.9376 9.59483 8.77045 9.42768 8.77045 9.2215V7.62356C8.77045 4.37968 6.14076 1.75 2.89689 1.75H2.12233ZM4.45302 9.13458C5.11628 7.61418 5.09223 5.90933 4.43821 4.43557C5.62128 5.00862 6.43712 6.22081 6.43712 7.62356V9.2215C6.43712 10.7163 7.64893 11.9282 9.14378 11.9282C10.6386 11.9282 11.8505 10.7163 11.8505 9.22149V8.92245C12.5877 9.20777 13.1105 9.92358 13.1105 10.7615V12.1143C13.1105 14.7666 10.9604 16.9167 8.30813 16.9167H8.05092C5.26935 16.9167 3.13037 14.4568 3.51662 11.7022C3.57437 11.2904 3.68794 10.8884 3.85421 10.5072L4.45302 9.13458Z" fill="#CAA164"/>
<path fill-rule="evenodd" clip-rule="evenodd" d="M20.6564 8.89414C18.6273 9.39085 17.063 11.1203 16.8468 13.2832L16.8061 13.6895C16.4242 17.5084 13.2107 20.4167 9.37266 20.4167H6.90663C5.80283 20.4167 5.23186 21.7346 5.98679 22.5399L6.31293 22.8878C9.01897 25.7742 12.9345 27.2047 16.864 26.7424C22.7043 26.0553 27.1059 21.1055 27.1059 15.2249V13.8928C27.1059 11.408 25.3438 9.33489 23.001 8.85479C22.7593 6.17957 20.5107 4.08333 17.7726 4.08333V6.41667C19.2341 6.41667 20.4446 7.49168 20.6564 8.89414ZM21.8559 11.0833C20.6869 11.0833 19.6782 11.8296 19.3068 12.8903C20.2318 12.8796 21.1478 13.2063 21.8605 13.8321C22.6185 13.1664 23.6066 12.8393 24.5908 12.8965C24.1887 11.8366 23.1639 11.0833 21.9631 11.0833H21.8559ZM9.71445 22.7441C14.13 22.5922 17.8546 19.508 18.891 15.2989C19.5225 15.0874 20.2473 15.329 20.6107 15.9346L20.7967 16.2446C21.2785 17.0477 22.4424 17.0477 22.9242 16.2446L23.1102 15.9346C23.4626 15.3473 24.1549 15.1024 24.7724 15.281C24.7445 19.9538 21.238 23.8784 16.5913 24.425C14.1473 24.7126 11.7098 24.0992 9.71445 22.7441Z" fill="#CAA164"/>
</svg>
